<svg xmlns="http://www.w3.org/2000/svg" xmlns:xlink="http://www.w3.org/1999/xlink" preserveAspectRatio="xMidYMid" width="54" height="48" viewBox="0 0 54 48">
  <defs>
    <style>

      .cls-2 {
        fill: #262626;
      }
    </style>
  </defs>
  <path d="M40.126,47.612 C37.959,43.903 34.760,42.216 30.548,42.235 C28.147,42.249 25.747,42.154 23.353,42.262 C21.243,42.358 19.280,42.043 17.433,41.004 C16.564,40.514 15.583,40.351 14.620,40.132 C12.288,39.605 10.013,38.901 7.678,38.324 C4.395,37.514 3.614,37.045 1.193,36.086 C0.798,35.930 0.314,36.057 0.124,35.567 C-0.055,35.097 -0.084,34.604 0.255,34.201 C0.840,33.505 1.434,33.169 2.487,33.231 C2.565,33.234 2.659,33.234 2.723,33.197 C4.616,32.128 4.613,32.854 6.536,33.011 C6.536,33.011 11.950,33.705 11.950,33.705 C12.904,33.634 20.060,35.369 20.470,34.549 C18.256,34.549 15.676,32.821 15.991,32.406 C16.555,31.661 17.342,31.330 18.289,31.333 C20.500,31.339 22.678,31.410 24.844,32.064 C26.469,32.557 28.140,32.477 29.830,31.800 C32.587,30.696 35.548,30.337 38.147,32.027 C41.351,34.114 44.390,36.463 46.713,39.615 C49.414,43.285 50.719,44.123 53.674,47.585 C53.674,47.585 40.126,47.612 40.126,47.612 ZM42.736,14.191 C42.345,14.601 41.936,15.154 41.496,15.763 C40.619,16.953 39.464,18.228 37.941,19.156 C37.187,19.614 36.370,20.025 35.511,20.302 C34.659,20.598 33.779,20.789 32.959,20.896 C32.224,20.984 30.545,21.207 30.026,21.182 C30.426,20.571 30.845,19.956 31.325,19.378 C31.641,18.953 32.015,18.581 32.363,18.199 C32.711,17.811 33.110,17.496 33.471,17.155 C33.855,16.846 34.248,16.575 34.616,16.304 C35.012,16.085 35.389,15.877 35.734,15.686 C36.106,15.549 36.447,15.420 36.752,15.308 C37.049,15.173 37.339,15.175 37.563,15.116 C38.023,15.034 38.288,14.986 38.288,14.986 C38.288,14.986 38.022,15.014 37.556,15.064 C37.326,15.105 37.029,15.083 36.720,15.198 C36.404,15.289 36.046,15.395 35.656,15.508 C35.287,15.678 34.889,15.861 34.464,16.055 C34.074,16.304 33.645,16.553 33.227,16.842 C32.837,17.166 32.397,17.463 32.008,17.832 C31.623,18.200 31.207,18.558 30.858,18.967 C30.436,19.418 30.041,19.883 29.666,20.354 C29.662,20.283 29.649,20.211 29.652,20.139 C29.646,19.449 29.781,18.587 30.078,17.677 C30.384,16.774 30.869,15.849 31.528,15.009 C32.176,14.149 33.020,13.407 33.974,12.801 C34.933,12.206 36.008,11.750 37.137,11.542 C38.257,11.315 39.419,11.320 40.442,11.549 C41.467,11.780 42.327,12.246 42.817,12.701 C43.068,12.906 43.223,13.163 43.323,13.307 C43.413,13.461 43.462,13.548 43.462,13.548 C43.462,13.548 43.386,13.603 43.246,13.707 C43.112,13.806 42.923,14.014 42.736,14.191 ZM29.275,21.665 C29.114,21.927 28.976,22.180 28.831,22.434 C34.151,23.303 38.537,26.950 40.455,31.838 C40.104,31.602 39.757,31.371 39.424,31.155 C36.728,29.397 33.391,29.256 29.591,30.777 C28.272,31.307 26.971,31.378 25.701,30.996 C23.290,30.266 20.906,30.198 18.654,30.192 C17.153,30.192 15.910,30.789 15.056,31.919 C14.840,32.200 14.720,32.535 14.697,32.879 C13.538,32.673 12.859,32.567 12.415,32.564 C12.415,32.564 12.059,32.518 12.059,32.518 C13.785,27.417 18.153,23.537 23.536,22.510 C23.435,22.337 23.347,22.169 23.239,21.993 C23.090,21.754 22.794,21.111 22.833,20.957 C22.851,20.864 22.846,20.772 22.851,20.682 C22.476,20.211 22.081,19.745 21.659,19.296 C21.303,18.885 20.889,18.529 20.505,18.161 C20.117,17.791 19.678,17.493 19.288,17.171 C18.867,16.882 18.441,16.629 18.050,16.383 C17.626,16.189 17.227,16.006 16.855,15.836 C16.466,15.722 16.109,15.616 15.794,15.526 C15.484,15.412 15.189,15.434 14.958,15.392 C14.492,15.343 14.227,15.314 14.227,15.314 C14.227,15.314 14.489,15.360 14.950,15.445 C15.176,15.503 15.465,15.501 15.763,15.637 C16.065,15.750 16.407,15.877 16.780,16.014 C17.125,16.206 17.502,16.413 17.898,16.632 C18.263,16.903 18.659,17.174 19.044,17.483 C19.401,17.824 19.803,18.141 20.152,18.526 C20.499,18.912 20.872,19.282 21.187,19.707 C21.668,20.285 22.089,20.897 22.485,21.508 C21.969,21.535 20.289,21.312 19.553,21.225 C18.735,21.118 17.854,20.928 17.004,20.631 C16.141,20.352 15.328,19.943 14.572,19.484 C13.050,18.556 11.894,17.281 11.018,16.090 C10.577,15.483 10.170,14.930 9.778,14.519 C9.591,14.341 9.402,14.133 9.267,14.036 C9.127,13.929 9.053,13.874 9.053,13.874 C9.053,13.874 9.102,13.790 9.191,13.634 C9.289,13.491 9.447,13.234 9.698,13.030 C10.186,12.573 11.051,12.109 12.074,11.877 C13.097,11.646 14.262,11.643 15.379,11.871 C16.509,12.079 17.583,12.536 18.543,13.129 C19.497,13.735 20.340,14.478 20.987,15.338 C21.648,16.177 22.134,17.103 22.439,18.005 C22.736,18.917 22.871,19.778 22.863,20.466 C22.868,20.539 22.853,20.610 22.851,20.680 C23.314,21.264 23.723,21.840 24.102,22.406 C24.846,22.294 25.607,22.229 26.382,22.229 C26.475,22.229 26.562,22.250 26.655,22.251 C26.763,21.754 26.868,21.247 26.962,20.710 C27.021,20.342 27.284,19.441 27.456,19.326 C27.555,19.246 27.629,19.153 27.714,19.065 C27.659,20.206 27.545,21.294 27.406,22.309 C27.674,22.328 27.945,22.338 28.209,22.371 C28.637,21.719 29.124,21.035 29.666,20.354 C29.669,20.445 29.666,20.537 29.682,20.631 C29.722,20.782 29.424,21.426 29.275,21.665 ZM29.628,16.045 C29.130,17.207 28.515,18.184 27.911,18.863 C27.850,18.940 27.775,18.997 27.711,19.066 C27.748,18.273 27.761,17.466 27.730,16.651 C27.735,15.933 27.634,15.219 27.571,14.516 C27.506,13.814 27.329,13.133 27.219,12.473 C27.052,11.821 26.846,11.201 26.672,10.615 C26.419,10.053 26.182,9.523 25.962,9.032 C25.673,8.582 25.409,8.168 25.175,7.802 C24.967,7.419 24.650,7.184 24.457,6.942 C24.040,6.487 23.799,6.228 23.799,6.228 C23.799,6.228 24.019,6.505 24.404,6.989 C24.578,7.241 24.869,7.491 25.047,7.886 C25.250,8.262 25.480,8.686 25.731,9.147 C25.909,9.638 26.101,10.171 26.307,10.736 C26.433,11.321 26.591,11.934 26.707,12.575 C26.765,13.227 26.889,13.889 26.900,14.577 C26.913,15.261 26.960,15.955 26.904,16.652 C26.881,17.644 26.763,18.621 26.628,19.575 C26.091,19.148 24.614,17.466 23.959,16.740 C23.236,15.920 22.526,14.965 21.939,13.932 C21.324,12.906 20.872,11.791 20.520,10.674 C19.814,8.431 19.771,6.156 19.936,4.209 C20.028,3.220 20.102,2.314 20.070,1.565 C20.035,1.225 20.030,0.856 19.982,0.641 C19.936,0.414 19.908,0.293 19.908,0.293 C19.908,0.293 20.028,0.254 20.253,0.178 C20.475,0.118 20.855,-0.001 21.284,0.014 C22.167,-0.014 23.427,0.273 24.647,0.933 C25.864,1.595 27.026,2.603 27.940,3.801 C28.882,4.989 29.556,6.380 29.993,7.805 C30.415,9.237 30.610,10.711 30.506,12.126 C30.432,13.537 30.110,14.882 29.628,16.045 Z" id="path-1" class="cls-2" fill-rule="evenodd"/>
</svg>
