<svg xmlns="http://www.w3.org/2000/svg" xmlns:xlink="http://www.w3.org/1999/xlink" preserveAspectRatio="xMidYMid" width="54" height="54" viewBox="0 0 54 54">
  <defs>
    <style>

      .cls-2 {
        fill: #262626;
      }
    </style>
  </defs>
  <path d="M53.156,15.022 C50.186,15.574 46.843,16.954 45.271,17.656 C44.767,16.876 44.185,16.156 43.513,15.484 C43.513,15.484 38.640,10.613 38.640,10.613 C37.968,9.947 37.242,9.359 36.468,8.861 C37.170,7.283 38.550,3.942 39.102,0.972 C39.294,-0.060 40.633,-0.354 41.251,0.492 C42.307,1.943 43.351,3.810 43.039,5.207 C43.039,5.207 50.264,2.310 50.264,2.310 C51.242,1.914 52.220,2.892 51.824,3.869 C51.824,3.869 48.919,11.086 48.919,11.086 C50.318,10.775 52.184,11.819 53.636,12.874 C54.488,13.492 54.188,14.830 53.156,15.022 ZM41.887,17.110 C46.387,21.615 45.925,28.851 41.329,32.822 C41.329,32.822 31.050,26.937 31.050,26.937 C31.050,26.937 36.210,35.948 36.210,35.948 C36.210,35.948 17.404,46.513 17.404,46.513 C17.404,46.513 10.659,42.877 10.659,42.877 C10.659,42.877 13.732,48.576 13.732,48.576 C13.732,48.576 4.581,53.718 4.581,53.718 C4.071,54.000 3.555,54.126 3.063,54.126 C0.914,54.126 -0.832,51.738 0.404,49.536 C0.404,49.536 12.177,28.593 12.177,28.593 C12.177,28.593 20.524,33.656 20.524,33.656 C20.524,33.656 14.716,24.081 14.716,24.081 C14.716,24.081 20.068,14.572 20.068,14.572 C22.079,10.996 25.739,9.095 29.441,9.095 C32.154,9.095 34.890,10.114 37.014,12.239 C37.014,12.239 41.887,17.110 41.887,17.110 Z" id="path-1" class="cls-2" fill-rule="evenodd"/>
</svg>
