<svg xmlns="http://www.w3.org/2000/svg" xmlns:xlink="http://www.w3.org/1999/xlink" preserveAspectRatio="xMidYMid" width="47" height="43" viewBox="0 0 47 43">
  <defs>
    <style>

      .cls-2 {
        fill: #262626;
      }
    </style>
  </defs>
  <path d="M44.267,32.228 C44.267,32.228 18.080,32.228 18.080,32.228 C15.037,32.228 12.365,30.282 11.430,27.384 C11.430,27.384 4.221,5.032 4.221,5.032 C4.190,4.934 4.100,4.868 3.996,4.868 C3.996,4.868 2.421,4.868 2.421,4.868 C1.080,4.868 -0.006,3.781 -0.006,2.439 C-0.006,1.099 1.080,0.011 2.421,0.011 C2.421,0.011 3.996,0.011 3.996,0.011 C6.214,0.011 8.162,1.430 8.842,3.542 C8.842,3.542 16.051,25.895 16.051,25.895 C16.335,26.777 17.152,27.371 18.080,27.371 C18.080,27.371 44.267,27.371 44.267,27.371 C45.607,27.371 46.694,28.459 46.694,29.800 C46.694,31.142 45.607,32.228 44.267,32.228 ZM41.646,23.147 C41.467,23.892 40.800,24.417 40.034,24.417 C40.034,24.417 19.731,24.417 19.731,24.417 C19.010,24.417 18.371,23.951 18.152,23.263 C18.152,23.263 13.161,7.656 13.161,7.656 C12.901,6.847 13.044,5.961 13.546,5.272 C14.048,4.586 14.847,4.178 15.698,4.178 C15.698,4.178 42.816,4.178 42.816,4.178 C43.632,4.178 44.403,4.553 44.908,5.193 C45.413,5.835 45.597,6.673 45.407,7.466 C45.407,7.466 41.646,23.147 41.646,23.147 ZM19.801,35.025 C21.938,35.025 23.672,36.759 23.672,38.898 C23.672,41.037 21.938,42.770 19.801,42.770 C17.663,42.770 15.930,41.037 15.930,38.898 C15.930,36.759 17.663,35.025 19.801,35.025 ZM40.130,35.025 C42.268,35.025 44.001,36.759 44.001,38.898 C44.001,41.037 42.268,42.770 40.130,42.770 C37.993,42.770 36.259,41.037 36.259,38.898 C36.259,36.759 37.993,35.025 40.130,35.025 Z" id="path-1" class="cls-2" fill-rule="evenodd"/>
</svg>
